<svg width="77" height="186" viewBox="0 0 77 186" fill="none" xmlns="http://www.w3.org/2000/svg">
<g clip-path="url(#clip0_915_2393)">
<path fill-rule="evenodd" clip-rule="evenodd" d="M53.516 37.7303C53.516 37.7303 61.6142 34.2362 60.564 29.0697C59.9902 26.2041 56.9696 19.919 53.8191 14.2305C50.6686 8.54193 46.7385 3.24754 46.1864 3.24754C44.1618 3.24754 40.4376 3.24754 38.9976 3.24754C38.9976 2.18227 38.9002 1.34071 38.911 0.978516C40.5133 0.978516 45.8183 1.117 46.9875 1.117C48.4383 1.117 52.3358 6.74162 55.8545 13.1013C59.1024 18.9603 62.2313 25.501 62.8593 28.5796C64.2775 35.5678 54.5012 39.765 54.4687 39.7756L53.516 37.7303Z" fill="#F9B631"/>
<path fill-rule="evenodd" clip-rule="evenodd" d="M53.5161 37.7276C53.5161 37.7276 61.6144 34.2336 60.5642 29.067C59.9904 26.2014 56.9697 19.9163 53.8192 14.2278C50.6687 8.53926 46.7387 3.24488 46.1865 3.24488C43.6531 3.24488 38.4239 3.29814 38.4131 3.29814V1.00781C38.4131 1.00781 45.5803 1.15695 46.9552 1.15695C48.3302 1.15695 52.3035 6.78157 55.8222 13.1412C59.0701 19.0002 62.1989 25.541 62.8269 28.6196C64.2452 35.6077 54.4688 39.8049 54.4363 39.8156L53.5161 37.7276Z" fill="#FFEEC4"/>
<path fill-rule="evenodd" clip-rule="evenodd" d="M62.2971 26.6603C60.4979 22.0014 58.3445 17.4825 55.8553 13.142C53.1704 8.28438 50.2581 3.84221 48.3851 2.03125C47.887 2.29757 47.703 2.72367 48.7424 3.99134C49.7817 5.25902 60.5649 22.2181 62.2971 26.6603Z" fill="white"/>
<path fill-rule="evenodd" clip-rule="evenodd" d="M54.4251 37.2793C56.5146 36.214 61.3973 33.1567 60.5637 29.0661C59.9899 26.2005 56.9692 19.9154 53.8187 14.2269C50.8955 8.96446 47.3229 4.08553 46.3701 3.33984C48.5354 3.72334 58.1818 20.3202 60.2822 24.4215C62.3825 28.5228 62.1119 31.0581 60.8993 33.3059C59.6867 35.5536 55.367 38.3978 55.367 38.3978C54.9868 38.0841 54.6677 37.7051 54.4251 37.2793Z" fill="#D4BF8A"/>
<path fill-rule="evenodd" clip-rule="evenodd" d="M39.5068 1.0293C41.5314 1.0293 46.0028 1.15713 47.0313 1.15713C47.1841 1.16408 47.3328 1.20799 47.4643 1.28496C47.2911 1.58324 47.107 1.84955 46.923 1.91347C45.0622 2.01319 43.1973 2.01319 41.3365 1.91347C40.9778 1.95169 40.6153 1.88889 40.2914 1.73236C39.9675 1.57584 39.6954 1.33202 39.5068 1.0293Z" fill="white"/>
<path fill-rule="evenodd" clip-rule="evenodd" d="M16.3373 152.021H58.9288C60.5312 152.021 61.852 153.619 61.852 155.59V168.821L61.538 170.951C60.9859 171.452 60.6286 172.017 61.105 172.017C61.5814 172.017 61.8412 172.752 61.8412 172.752V178.898C61.8412 184.853 13.4033 184.928 13.4033 178.898V172.752C13.4339 172.569 13.5211 172.401 13.6529 172.269C13.7847 172.138 13.9547 172.049 14.1395 172.017C14.3777 172.017 14.1936 171.729 13.8905 171.399C13.7497 171.25 13.8905 170.962 13.7173 170.802L13.4033 169.236V155.59C13.4141 153.619 14.7241 152.021 16.3373 152.021Z" fill="#F9E7B9"/>
<path fill-rule="evenodd" clip-rule="evenodd" d="M52.629 152.021H58.93C60.5324 152.021 61.8532 153.619 61.8532 155.59V168.821L61.5392 170.951C60.9871 171.452 60.6298 172.017 61.1062 172.017C61.5826 172.017 61.8424 172.752 61.8424 172.752V178.898C61.8424 180.422 58.6702 181.561 53.9715 182.307L54.3179 175.021L52.6182 173.955L52.629 152.021Z" fill="#FFEEC4"/>
<path fill-rule="evenodd" clip-rule="evenodd" d="M61.3008 153.512C61.6676 154.145 61.8581 154.861 61.853 155.589V170.439H61.7014L13.4151 170.194V155.589C13.4126 154.863 13.5989 154.148 13.9564 153.512C14.3858 153.239 14.8851 153.091 15.3963 153.086H59.8608C60.3721 153.091 60.8714 153.239 61.3008 153.512ZM61.2033 171.622C60.9976 171.867 60.9219 172.037 61.1059 172.058C61.2908 172.091 61.4607 172.179 61.5925 172.311C61.7244 172.443 61.8116 172.611 61.8421 172.793V172.943C55.2596 177.033 19.9868 177.076 13.4151 172.943V172.783C13.4456 172.6 13.5328 172.432 13.6646 172.3C13.7965 172.169 13.9664 172.08 14.1513 172.048C14.3678 172.048 14.2271 171.792 13.9564 171.494L14.5302 171.696C14.5302 171.696 37.9588 178.173 60.9652 171.504L61.2033 171.622Z" fill="#F5DEA4"/>
<path fill-rule="evenodd" clip-rule="evenodd" d="M61.301 153.512C61.6678 154.145 61.8583 154.861 61.8531 155.589V170.439H61.7015H52.6289V153.086H59.861C60.3723 153.091 60.8715 153.239 61.301 153.512ZM52.6397 173.39V173.987L54.2637 174.999C57.7282 174.498 60.4457 173.805 61.8423 172.932V172.783C61.8117 172.6 61.7245 172.432 61.5927 172.3C61.4609 172.169 61.2909 172.08 61.1061 172.048C60.922 172.048 60.9978 171.856 61.2035 171.611L60.9653 171.504C58.2269 172.295 55.4432 172.924 52.6289 173.39H52.6397Z" fill="#D4BF8A"/>
<path fill-rule="evenodd" clip-rule="evenodd" d="M17.1828 53.2617H58.9298C60.1316 53.2617 60.7487 54.2418 61.6148 55.3923C61.8338 55.8237 61.9168 56.3096 61.853 56.7878V170.463C61.853 176.417 13.4151 176.481 13.4151 170.463V56.8304C13.3916 56.3503 13.4728 55.8708 13.6533 55.4242C14.0167 54.807 14.5287 54.2871 15.1441 53.91C15.7594 53.533 16.4595 53.3104 17.1828 53.2617Z" fill="#F9E7B9"/>
<path fill-rule="evenodd" clip-rule="evenodd" d="M50.8643 53.2617H58.93C60.1318 53.2617 60.7489 54.2418 61.615 55.3923C61.834 55.8237 61.917 56.3096 61.8532 56.7878V170.463C61.8532 172.114 58.1181 173.307 52.7265 174.053L52.629 173.989V56.9156L50.8643 53.2617Z" fill="#FFEEC4"/>
<path fill-rule="evenodd" clip-rule="evenodd" d="M61.8529 169.396V170.462C61.8529 176.417 13.415 176.481 13.415 170.462V169.396C13.415 175.415 61.8529 175.351 61.8529 169.396Z" fill="#FFEEC4"/>
<path fill-rule="evenodd" clip-rule="evenodd" d="M61.8524 169.396V170.462C61.863 170.55 61.863 170.64 61.8524 170.728C61.8295 170.817 61.7968 170.902 61.7549 170.984C61.711 171.072 61.6565 171.154 61.5926 171.229C61.5226 171.312 61.4466 171.39 61.3652 171.463L61.0837 171.687L60.7589 171.9C60.6375 171.976 60.5109 172.043 60.38 172.102L59.9578 172.294C59.8097 172.363 59.6579 172.423 59.503 172.475H59.4056L58.9617 172.635H58.8102L58.3446 172.773H58.1714L57.7058 172.901L57.4893 172.954L57.0021 173.072L56.7314 173.136L56.2876 173.231L55.9303 173.295L55.5188 173.381L55.1508 173.445L54.6527 173.54L54.2738 173.594L53.8516 173.668L53.4402 173.721H53.1912H52.9421L52.8447 173.658V172.667C58.0739 172.262 61.8524 171.058 61.8524 169.396Z" fill="#FCCE72"/>
<path fill-rule="evenodd" clip-rule="evenodd" d="M23.8299 44.1855H51.4159C52.2928 45.1443 61.2247 54.1991 61.6469 55.6052C57.8901 56.6705 48.6551 57.3949 37.8286 57.3949C26.5474 57.3949 16.9767 56.5853 13.5771 55.4667C14.0319 54.3056 23.0829 44.9952 23.8299 44.1855Z" fill="#FFEEC4"/>
<path fill-rule="evenodd" clip-rule="evenodd" d="M48.2653 44.1855H51.4158C52.2927 45.1443 61.2246 54.1991 61.6468 55.6052C58.6696 56.2887 55.6376 56.7164 52.585 56.8836L48.5575 48.4999V47.4346H47.1826V44.9312L48.2003 44.3666L48.2653 44.1855Z" fill="#FFF3D6"/>
<path fill-rule="evenodd" clip-rule="evenodd" d="M20.4961 47.6883C20.7884 48.1037 28.1721 48.8601 37.3963 48.8601C46.6205 48.8601 54.264 48.1037 54.5564 47.6883V40.9238H20.4961V47.6883Z" fill="#F5DEA4"/>
<path fill-rule="evenodd" clip-rule="evenodd" d="M48.579 48.4766C52.1085 48.2209 54.4037 47.9013 54.5661 47.6776V40.9238H47.085V43.1289L48.5574 43.065L48.2109 44.3646L47.1932 44.9292V47.422L48.5682 47.358L48.579 48.4766Z" fill="#D4BF8A"/>
<path fill-rule="evenodd" clip-rule="evenodd" d="M19.3145 44.2461H55.7458V46.7069V46.8027H55.6159C54.5873 47.2075 46.8788 47.5271 37.5247 47.5271C28.1706 47.5271 20.4513 47.2075 19.4228 46.8027H19.3037V44.2461H19.3145Z" fill="#FFEEC4"/>
<path fill-rule="evenodd" clip-rule="evenodd" d="M48.2436 44.2461H55.7463V46.7069V46.8027H55.6164C52.8305 47.2316 50.013 47.4311 47.1934 47.3993V44.9279L48.2111 44.3633L48.2436 44.2461Z" fill="#FFF3D6"/>
<path fill-rule="evenodd" clip-rule="evenodd" d="M54.5656 43.9297C55.3343 44.0256 55.7566 44.1214 55.7566 44.2173C55.7566 44.6754 47.5934 45.0376 37.5355 45.0376C27.4777 45.0376 19.3145 44.6754 19.3145 44.2173C19.3145 44.1214 19.7259 44.0256 20.4946 43.9297V43.983C26.1153 44.4406 31.7558 44.6184 37.3948 44.5156C46.619 44.5156 54.2625 44.1747 54.5548 43.983L54.5656 43.9297Z" fill="#F9E7B9"/>
<path fill-rule="evenodd" clip-rule="evenodd" d="M54.5659 43.9297C55.3346 44.0256 55.7569 44.1214 55.7569 44.2173C55.7569 44.5156 52.3465 44.7712 47.2256 44.9097L48.2216 44.3664C50.3419 44.3618 52.4602 44.2374 54.5659 43.9936V43.9297Z" fill="#F2D999"/>
<path fill-rule="evenodd" clip-rule="evenodd" d="M20.4961 43.9811C26.1168 44.4388 31.7574 44.6166 37.3963 44.5138C46.6205 44.5138 54.264 44.1729 54.5564 43.9811V40.9238H20.4961V43.9811Z" fill="#F5DEA4"/>
<path fill-rule="evenodd" clip-rule="evenodd" d="M48.2216 44.3552C50.3419 44.3506 52.4602 44.2261 54.566 43.9823V42.6934C53.1369 42.8638 50.4844 43.0129 47.0957 43.0982H48.3083L48.2216 44.3552Z" fill="#D4BF8A"/>
<path fill-rule="evenodd" clip-rule="evenodd" d="M19.3145 35.4597H55.7458V42.3626V42.4585H55.6159C54.5873 42.874 46.8788 43.1935 37.5247 43.1935C28.1706 43.1935 20.4513 42.874 19.4228 42.4585H19.3037V35.4277L19.3145 35.4597Z" fill="#FFEEC4"/>
<path fill-rule="evenodd" clip-rule="evenodd" d="M41.7363 35.459H55.8108V42.3619V42.4578H55.6809C52.8592 42.8932 50.0056 43.0963 47.1496 43.065V35.8318L41.823 35.672L41.7363 35.459Z" fill="#FFF3D6"/>
<path fill-rule="evenodd" clip-rule="evenodd" d="M37.5355 36.29C47.5717 36.29 55.7566 35.9278 55.7566 35.4804C55.7566 35.033 47.5717 34.6602 37.5355 34.6602C27.4993 34.6602 19.3145 35.0223 19.3145 35.4804C19.3145 35.9385 27.4993 36.29 37.5355 36.29Z" fill="#FFEEC4"/>
<path fill-rule="evenodd" clip-rule="evenodd" d="M41.6719 34.6797C49.7701 34.7649 55.8113 35.0845 55.8113 35.4786C55.8113 35.8728 52.3468 36.0326 47.1501 36.1711L41.8235 35.6704L41.6719 34.6797Z" fill="#FFF3D6"/>
<path fill-rule="evenodd" clip-rule="evenodd" d="M37.5364 2.25408L36.6377 2.1582L30.629 32.1349L30.0228 35.1496C29.947 35.7994 44.7576 36.0124 45.0391 35.1496L44.3355 31.6342L38.4241 2.1582L37.5364 2.25408Z" fill="#FFEEC4"/>
<path fill-rule="evenodd" clip-rule="evenodd" d="M41.7582 35.653C43.6096 35.5678 45.0062 35.408 45.0062 35.1523L44.3024 31.637L39.7553 8.76562C39.7553 9.60719 39.8419 10.1824 39.8419 10.225C39.8419 10.2677 39.712 10.992 39.4088 11.0666C39.1057 11.1412 38.3262 11.2797 38.3262 11.2797L41.7582 35.653Z" fill="#FFF3D6"/>
<path fill-rule="evenodd" clip-rule="evenodd" d="M32.2744 35.5456C33.2271 35.6095 34.4397 35.6627 35.6523 35.6947L36.7349 11.2787C35.6415 11.0657 32.2744 35.5349 32.2744 35.5456Z" fill="#F9E7B9"/>
<path fill-rule="evenodd" clip-rule="evenodd" d="M36.4206 -0.248047H38.5859C38.9358 -0.232264 39.2668 -0.0877152 39.5135 0.156946C39.7601 0.401607 39.9043 0.728521 39.9176 1.07289L41.0002 9.68026C41.0063 9.85486 40.9757 10.0288 40.9103 10.1912C40.8448 10.3536 40.746 10.501 40.6199 10.624C40.4939 10.7471 40.3433 10.8431 40.1777 10.9062C40.0121 10.9693 39.8351 10.998 39.6577 10.9905H35.3921C35.2147 10.998 35.0376 10.9693 34.872 10.9062C34.7064 10.8431 34.5559 10.7471 34.4298 10.624C34.3038 10.501 34.205 10.3536 34.1395 10.1912C34.0741 10.0288 34.0435 9.85486 34.0496 9.68026L35.1322 1.07289C35.1445 0.735418 35.2826 0.414215 35.5203 0.170574C35.7579 -0.0730664 36.0784 -0.222086 36.4206 -0.248047Z" fill="#F9E7B9"/>
<path fill-rule="evenodd" clip-rule="evenodd" d="M37.8721 -0.248047H38.5867C38.9365 -0.232264 39.2676 -0.0877152 39.5142 0.156946C39.7609 0.401607 39.9051 0.728521 39.9183 1.07289L41.001 9.68026C41.0071 9.85486 40.9765 10.0288 40.911 10.1912C40.8456 10.3536 40.7467 10.501 40.6207 10.624C40.4946 10.7471 40.344 10.8431 40.1785 10.9062C40.0129 10.9693 39.8359 10.998 39.6585 10.9905H39.1496C39.3375 10.7769 39.4446 10.506 39.4528 10.2235C39.4528 10.0211 38.8789 1.89314 38.933 0.934402C38.9439 0.348504 38.3376 -0.0349931 37.8721 -0.248047Z" fill="#F5B22C"/>
<path fill-rule="evenodd" clip-rule="evenodd" d="M61.8421 172.934C55.2596 177.024 19.9867 177.067 13.415 172.934V173.722C15.9376 175.437 26.1362 176.992 36.6055 177.099C48.3739 177.216 60.4238 175.671 61.8421 173.711V172.934Z" fill="#FFEEC4"/>
<path fill-rule="evenodd" clip-rule="evenodd" d="M16.3382 152.021H22.4227V173.987L20.723 175.053L21.0694 182.328C16.4789 181.583 13.415 180.454 13.415 178.93V172.784C13.4456 172.601 13.5328 172.433 13.6646 172.301C13.7964 172.17 13.9664 172.081 14.1512 172.049C14.3894 172.049 14.2054 171.761 13.9022 171.431C13.7615 171.282 13.9022 170.994 13.729 170.834L13.415 169.268V155.59C13.415 153.619 14.725 152.021 16.3382 152.021Z" fill="#F5DEA4"/>
<path fill-rule="evenodd" clip-rule="evenodd" d="M22.347 174.04L20.8095 174.988C17.4425 174.487 14.79 173.806 13.415 172.943V172.783C13.4456 172.601 13.5328 172.432 13.6646 172.3C13.7964 172.169 13.9664 172.081 14.1512 172.048C14.3461 172.048 14.2595 171.846 14.0538 171.59C15.3097 172.666 18.3628 173.486 22.347 174.04Z" fill="#D4BF8A"/>
<path fill-rule="evenodd" clip-rule="evenodd" d="M17.1828 53.2617H24.1875L22.4228 56.9156V173.989L22.347 174.042C17.0529 173.307 13.4151 172.114 13.4151 170.463V56.8304C13.3916 56.3503 13.4728 55.8708 13.6533 55.4242C14.0167 54.807 14.5287 54.2871 15.1441 53.91C15.7594 53.533 16.4595 53.3104 17.1828 53.2617Z" fill="#F5DEA4"/>
<path fill-rule="evenodd" clip-rule="evenodd" d="M22.347 174.041C17.0528 173.306 13.415 172.113 13.415 170.462V169.396C13.415 171.058 17.096 172.251 22.4227 172.986V173.988L22.347 174.041Z" fill="#F9E7B9"/>
<path fill-rule="evenodd" clip-rule="evenodd" d="M23.8297 44.1855H26.7853V44.3666L27.803 44.9312V47.4027H26.428V48.5425L22.4222 56.8622C19.4425 56.7023 16.4865 56.2491 13.5986 55.5094C14.0317 54.3056 23.0827 44.9952 23.8297 44.1855Z" fill="#F9E7B9"/>
<path fill-rule="evenodd" clip-rule="evenodd" d="M20.4952 47.6886C20.6468 47.9123 22.9312 48.2425 26.4606 48.4982V47.3583H27.8356C24.501 47.2731 21.8918 47.124 20.4844 46.9642V47.6886H20.4952ZM26.8287 44.3756L26.5148 43.0653C23.8298 42.9694 21.7295 42.8416 20.5169 42.7031V44.2584H26.8287V44.3756Z" fill="#D4BF8A"/>
<path fill-rule="evenodd" clip-rule="evenodd" d="M19.3156 44.2461H26.8076V44.3633L27.8253 44.9279V47.3993C25.0092 47.4308 22.1954 47.2312 19.413 46.8027H19.2939V44.2461H19.3156Z" fill="#F5DEA4"/>
<path fill-rule="evenodd" clip-rule="evenodd" d="M27.8242 44.9097C22.7032 44.7712 19.3145 44.5156 19.3145 44.2173C19.3145 44.1214 19.7259 44.0256 20.4946 43.9297V43.983C22.5924 44.2356 24.7038 44.3636 26.8173 44.3664L27.8242 44.9097Z" fill="#F2D999"/>
<path fill-rule="evenodd" clip-rule="evenodd" d="M20.4954 43.9818C22.5933 44.2344 24.7047 44.3625 26.8182 44.3653V43.0977H20.4521L20.4954 43.9818Z" fill="#D4BF8A"/>
<path fill-rule="evenodd" clip-rule="evenodd" d="M19.3145 35.459H33.3132V35.672L27.9865 35.8318V43.097C25.1342 43.1273 22.2842 42.9242 19.466 42.4898H19.347V35.459H19.3145Z" fill="#F5DEA4"/>
<path fill-rule="evenodd" clip-rule="evenodd" d="M27.9552 36.1711C22.7693 36.0219 19.2939 35.7663 19.2939 35.4786C19.2939 35.191 25.3243 34.7649 33.3684 34.6797L33.2168 35.6704L27.9552 36.1711Z" fill="#F2D999"/>
<path fill-rule="evenodd" clip-rule="evenodd" d="M35.295 8.86133L30.6287 32.1375L30.0225 35.1522C30.0225 35.3546 31.3758 35.5037 33.2704 35.6102L36.7566 11.2795C36.7566 11.2795 35.9337 11.141 35.6198 11.0664C35.3058 10.9919 35.1867 10.4273 35.1867 10.2249C35.1867 10.0225 35.2408 9.64963 35.295 8.86133Z" fill="#F5DEA4"/>
<path fill-rule="evenodd" clip-rule="evenodd" d="M36.4211 -0.248047H36.7675C36.2911 -0.0349931 35.6848 0.348504 35.6848 0.934402C35.6848 1.89314 35.176 10.0211 35.176 10.2235C35.1795 10.5069 35.2872 10.7793 35.4792 10.9905H35.3384C35.161 10.998 34.984 10.9693 34.8184 10.9062C34.6528 10.8431 34.5022 10.7471 34.3762 10.624C34.2501 10.501 34.1513 10.3536 34.0858 10.1912C34.0204 10.0288 33.9898 9.85486 33.9959 9.68026L35.0785 1.07289C35.0919 0.726761 35.2377 0.398377 35.4866 0.153452C35.7356 -0.0914736 36.0693 -0.234872 36.4211 -0.248047Z" fill="#F5DEA4"/>
<path fill-rule="evenodd" clip-rule="evenodd" d="M20.8095 174.989C17.4425 174.488 14.79 173.806 13.415 172.943V173.732C14.4977 174.499 17.2151 175.234 20.7554 175.862V175.095L20.8095 174.989Z" fill="#F9E7B9"/>
<path fill-rule="evenodd" clip-rule="evenodd" d="M61.8535 169.396V170.462C61.8535 172.145 57.956 173.359 52.3803 174.094L52.207 173.988V173.061C57.9126 172.326 61.8535 171.101 61.8535 169.396Z" fill="#FDF2D2"/>
<path fill-rule="evenodd" clip-rule="evenodd" d="M37.8721 -0.248047H38.5867C38.9365 -0.232264 39.2676 -0.0877152 39.5142 0.156946C39.7609 0.401607 39.9051 0.728521 39.9183 1.07289L41.001 9.68026C41.0071 9.85486 40.9765 10.0288 40.911 10.1912C40.8456 10.3536 40.7467 10.501 40.6207 10.624C40.4946 10.7471 40.344 10.8431 40.1785 10.9062C40.0129 10.9693 39.8359 10.998 39.6585 10.9905H39.1496C39.3375 10.7769 39.4446 10.506 39.4528 10.2235C39.4528 10.0211 38.8789 1.89314 38.933 0.934402C38.9439 0.348504 38.3376 -0.0349931 37.8721 -0.248047Z" fill="#F9B631"/>
<path fill-rule="evenodd" clip-rule="evenodd" d="M37.8721 -0.248047H38.5867C38.9365 -0.232264 39.2676 -0.0877152 39.5142 0.156946C39.7609 0.401607 39.9051 0.728521 39.9183 1.07289L41.001 9.68026C41.0071 9.85486 40.9765 10.0288 40.911 10.1912C40.8456 10.3536 40.7467 10.501 40.6207 10.624C40.4946 10.7471 40.344 10.8431 40.1785 10.9062C40.0129 10.9693 39.8359 10.998 39.6585 10.9905H39.312C39.312 10.7881 38.7382 2.66014 38.7924 1.7014V0.817222C38.7974 0.796208 38.7974 0.77432 38.7924 0.753306V0.625474H38.7382H38.4242H38.2835H38.0561L37.8721 -0.248047Z" fill="#FFF3D6"/>
<path fill-rule="evenodd" clip-rule="evenodd" d="M61.841 172.934C60.3903 173.839 57.5104 174.542 53.916 175.064V176.129C58.2466 175.522 61.2347 174.691 61.8952 173.765L61.841 172.934Z" fill="#FDF2D2"/>
<path fill-rule="evenodd" clip-rule="evenodd" d="M19.4883 56.5304C26.0664 57.1943 32.678 57.4824 39.29 57.3932C48.6116 57.1376 57.1646 56.4238 57.1646 56.4238C44.7224 58.7701 31.944 58.8062 19.4883 56.5304Z" fill="white"/>
<path fill-rule="evenodd" clip-rule="evenodd" d="M25.3457 36.0859C25.3457 36.0859 33.7363 36.299 36.9301 36.2883C40.1239 36.2777 48.6877 36.1179 48.6877 36.1179C48.6877 36.1179 43.5451 36.544 36.7785 36.7464C32.9564 36.7971 29.1355 36.5764 25.3457 36.0859Z" fill="white"/>
<path fill-rule="evenodd" clip-rule="evenodd" d="M25.3457 44.8223C25.3457 44.8223 33.7363 45.0353 36.9301 45.0247C40.1239 45.014 48.6877 44.8542 48.6877 44.8542C40.9274 45.6479 33.1038 45.6372 25.3457 44.8223Z" fill="white"/>
<path fill-rule="evenodd" clip-rule="evenodd" d="M53.7217 49.7148C53.7217 49.7148 59.438 56.1065 59.2323 57.6724C59.0266 59.2383 59.6438 167.523 59.6438 168.961C59.6438 170.399 57.9982 58.3435 57.5759 57.3848C57.1537 56.426 53.7217 49.7148 53.7217 49.7148Z" fill="white"/>
<path fill-rule="evenodd" clip-rule="evenodd" d="M61.8529 97.5312V139.3C61.8529 143.221 13.415 143.05 13.415 139.3V97.5312C13.415 101.59 61.8529 101.664 61.8529 97.5312Z" fill="#FDF2D2"/>
<path fill-rule="evenodd" clip-rule="evenodd" d="M22.4227 141.527C17.096 141.047 13.415 140.291 13.415 139.258V97.5312C13.415 98.5965 17.096 99.47 22.4227 99.9707V141.527Z" fill="#FFEBB8"/>
<path fill-rule="evenodd" clip-rule="evenodd" d="M61.8531 97.5312V138.853C61.845 139.213 61.7112 139.559 61.4742 139.833C60.3915 140.621 57.0678 141.218 52.6289 141.591V100.045C58.0746 99.5127 61.8531 98.6817 61.8531 97.5312Z" fill="#FFF9E8"/>
<path fill-rule="evenodd" clip-rule="evenodd" d="M59.298 99.6738C59.3521 113.608 59.4279 128.756 59.4929 141.326L59.2005 141.432C59.0057 128.926 58.7675 113.853 58.5293 99.8869C58.8 99.8869 59.0598 99.759 59.298 99.6738Z" fill="white"/>
</g>
<defs>
<clipPath id="clip0_915_2393">
<rect width="77" height="185.62" fill="white"/>
</clipPath>
</defs>
</svg>
