<svg width="164" height="164" viewBox="0 0 164 164" fill="none" xmlns="http://www.w3.org/2000/svg">
<path d="M42.172 82.9831C41.1555 85.7501 38.2401 86.4472 35.9107 86.5035C34.8382 86.5486 33.7639 86.4801 32.7059 86.2993C30.5247 79.6035 34.16 75.4916 34.16 75.4916C33.7528 75.7911 33.3032 76.0284 32.8259 76.1957C32.559 76.2884 32.2816 76.3476 32 76.3717C32.1972 75.5877 32.4617 74.8222 32.7906 74.0834C34.226 71.041 36.4269 68.4212 39.179 66.4793C39.8911 65.9445 40.6413 65.4621 41.4237 65.0359C40.7955 62.4023 40.3241 59.7338 40.0119 57.0446C38.6354 45.7792 39.7649 34.6406 41.4237 34.1125C42.5037 33.7746 45.2779 34.2322 50.2686 37.9005H50.3039L50.6356 38.1469C53.1638 40.079 55.562 42.1746 57.8146 44.4203C58.2391 44.8392 58.7531 45.157 59.3182 45.3497C59.8761 45.5407 60.4731 45.5891 61.0547 45.4905C41.9884 64.8458 42.172 82.9831 42.172 82.9831Z" fill="url(#paint0_linear_5884_4707)"/>
<path d="M45.1786 41.893C43.8303 41.7662 45.3127 55.3973 47.5292 59.136L54.0447 51.7009C54.0447 51.7009 50.7764 42.3365 45.1786 41.893Z" fill="url(#paint1_linear_5884_4707)"/>
<path opacity="0.42" d="M61.0688 45.5257C60.4823 45.6194 59.8818 45.5711 59.3179 45.3848C58.754 45.1986 58.2433 44.8799 57.8287 44.4555C55.5761 42.2098 53.1779 40.1142 50.6498 38.1821C52.3157 39.4988 54.6945 42.47 53.8828 43.4205C53.671 43.667 49.9227 41.2167 49.3439 40.7661C47.2262 39.1256 43.3649 37.5203 43.0684 38.6539C42.2284 41.8645 44.9038 48.6941 44.9038 48.6941C44.9038 48.6941 44.6214 45.0399 46.2097 44.5752C47.9532 44.0683 51.2568 46.6875 52.478 48.7997C52.9396 49.4991 53.1163 50.3477 52.9722 51.1725C52.6969 51.9329 49.0615 55.397 47.5015 55.052C46.5485 54.8337 45.532 52.8623 45.0944 49.3137C45.1996 51.5722 45.6031 53.807 46.2944 55.9603C46.845 57.8332 40.9084 62.797 39.9907 57.0868C40.3029 59.7761 40.7743 62.4445 41.4025 65.0782C40.6201 65.5043 39.8699 65.9867 39.1578 66.5216C44.0991 63.4166 37.5695 71.4502 35.2612 72.8583C33.2212 74.0412 32.7906 74.0834 32.7906 74.0834C32.4617 74.8222 32.1972 75.5877 32 76.3717C32.2699 76.3425 32.5354 76.281 32.7906 76.1887C33.2706 75.9281 33.8565 75.8366 34.1247 75.4846C35.6848 73.492 37.0895 73.1893 37.0895 73.1893C37.0895 73.1893 36.6448 75.4775 35.8754 78.9205C34.5342 85.1165 32.7059 86.2993 32.7059 86.2993C32.7059 86.2993 40.4002 87.8694 42.1931 82.9831C42.172 82.9831 41.9884 64.8458 61.0688 45.5257Z" fill="url(#paint2_linear_5884_4707)" style="mix-blend-mode:multiply"/>
<g opacity="0.42" style="mix-blend-mode:multiply">
<path d="M45.0798 49.2289C44.981 48.6657 44.9245 48.2573 44.9033 48.1235L45.0798 49.2289Z" fill="#B41E2D"/>
</g>
<path d="M46.2736 35.8023C46.1818 37.9145 49.0972 38.4567 49.3443 37.9145C49.5913 37.3724 46.3089 35.0841 46.2736 35.8023Z" fill="white"/>
<g opacity="0.5" style="mix-blend-mode:multiply">
<path d="M42.1724 82.9829C41.1559 85.75 38.2406 86.447 35.9111 86.5034C40.5348 85.1515 30.151 82.5253 42.7019 63.4798C47.7631 55.8475 54.9915 49.222 59.3328 45.3848C59.8907 45.5757 60.4877 45.6241 61.0693 45.5256C41.9889 64.8457 42.1724 82.9829 42.1724 82.9829Z" fill="#A52188"/>
</g>
<path d="M121.727 82.9832C122.743 85.7503 125.658 86.4473 127.988 86.5036C129.068 86.5409 130.15 86.463 131.214 86.2713C133.374 79.5754 129.738 75.4636 129.738 75.4636C130.146 75.763 130.595 76.0003 131.073 76.1677C131.328 76.26 131.593 76.3215 131.863 76.3507C131.675 75.5676 131.42 74.8021 131.101 74.0624C129.665 71.02 127.465 68.4002 124.712 66.4583C124 65.9235 123.25 65.4411 122.468 65.015C123.099 62.382 123.571 59.7133 123.88 57.0236C125.242 45.7582 124.12 34.6196 122.468 34.0915C121.388 33.7536 118.614 34.2112 113.623 37.8795L113.291 38.1259C110.763 40.058 108.365 42.1536 106.112 44.3993C105.688 44.8182 105.174 45.136 104.609 45.3287C104.051 45.5197 103.454 45.5681 102.872 45.4695C121.91 64.846 121.727 82.9832 121.727 82.9832Z" fill="url(#paint3_linear_5884_4707)"/>
<path d="M118.719 41.8927C120.067 41.7871 118.585 55.3971 116.396 59.1358L109.881 51.7006C109.881 51.7006 113.121 42.3363 118.719 41.8927Z" fill="url(#paint4_linear_5884_4707)"/>
<path opacity="0.42" d="M102.829 45.5257C103.416 45.6194 104.016 45.5711 104.58 45.3848C105.144 45.1986 105.655 44.8799 106.069 44.4555C108.322 42.2098 110.72 40.1142 113.248 38.1821C111.582 39.4988 109.203 42.4841 110.015 43.4205C110.227 43.667 113.975 41.2167 114.554 40.7661C116.672 39.1256 120.533 37.5203 120.829 38.6539C121.669 41.8645 118.994 48.6941 118.994 48.6941C118.994 48.6941 119.276 45.0399 117.688 44.5752C115.945 44.0683 112.641 46.6875 111.413 48.7997C110.958 49.5018 110.782 50.3478 110.919 51.1725C111.201 51.9329 114.836 55.397 116.396 55.052C117.349 54.8337 118.366 52.8623 118.804 49.3137C118.698 51.5722 118.295 53.807 117.604 55.9603C117.053 57.8332 122.989 62.797 123.9 57.0868C123.591 59.7766 123.12 62.4452 122.488 65.0782C123.271 65.5043 124.021 65.9867 124.733 66.5216C119.827 63.4166 126.321 71.4502 128.63 72.8583C130.691 74.0905 131.121 74.1327 131.121 74.1327C131.441 74.8723 131.696 75.6379 131.884 76.421C131.614 76.3917 131.348 76.3303 131.093 76.2379C130.613 75.9774 130.027 75.8859 129.759 75.5339C128.199 73.5413 126.794 73.2385 126.794 73.2385C126.794 73.2385 127.239 75.5268 128.008 78.9698C129.42 85.1587 131.234 86.3416 131.234 86.3416C131.234 86.3416 123.54 87.9117 121.747 83.0253C121.726 82.9831 121.909 64.8458 102.829 45.5257Z" fill="url(#paint5_linear_5884_4707)" style="mix-blend-mode:multiply"/>
<g opacity="0.42" style="mix-blend-mode:multiply">
<path d="M118.825 49.2289C118.924 48.6657 118.98 48.2573 119.002 48.1235L118.825 49.2289Z" fill="#B41E2D"/>
</g>
<path d="M117.625 35.8023C117.717 37.9145 114.801 38.4567 114.554 37.9145C114.307 37.3724 117.59 35.0841 117.625 35.8023Z" fill="white"/>
<g opacity="0.5" style="mix-blend-mode:multiply">
<path d="M121.726 82.9829C122.742 85.75 125.658 86.447 127.987 86.5034C123.364 85.1515 133.747 82.5253 121.197 63.4798C116.135 55.8475 108.942 49.222 104.566 45.3848C104.008 45.5757 103.411 45.6241 102.829 45.5256C121.909 64.8457 121.726 82.9829 121.726 82.9829Z" fill="#A52188"/>
</g>
<path d="M82.0759 44.0542C66.3415 44.0542 53.6424 53.7987 44.8682 65.9301C37.9504 75.4846 40.3857 89.4677 45.4329 99.2897C46.3233 101.029 47.323 102.71 48.4259 104.324C55.6542 114.885 67.1745 122.447 80.3394 122.454C93.5044 122.461 103.846 116.969 110.912 108.33C116.997 100.909 120.604 91.1223 121.317 80.4906C122.587 61.593 99.448 44.0612 82.0759 44.0542ZM83.8336 116.857C72.504 116.92 60.659 112.027 53.6848 103.338C49.9754 98.7888 47.819 93.1771 47.5294 87.3202C46.5553 68.3944 62.7838 50.0037 81.9771 49.1377C99.8151 48.3491 116.46 66.9229 116.453 83.9477C116.402 88.3219 115.48 92.6423 113.739 96.6578C111.999 100.673 109.476 104.303 106.316 107.337C100.342 113.296 92.2813 116.709 83.8336 116.857Z" fill="url(#paint6_linear_5884_4707)"/>
<path d="M82.0767 39.4639C59.2198 39.4639 37.9723 60.9878 37.81 83.6241C37.7947 86.8074 38.1958 89.979 39.003 93.0588C40.2067 97.8265 42.2244 102.352 44.9678 106.436C53.1773 118.807 67.507 127.665 82.0767 127.77C95.757 127.855 108.901 119.835 117.273 108.837C120.193 105.036 122.518 100.816 124.169 96.3188C124.169 96.2765 124.169 96.2413 124.205 96.2061C124.536 95.2838 124.812 94.3121 125.073 93.3898C125.073 93.2701 125.136 93.1433 125.165 93.0166C125.958 89.961 126.352 86.8158 126.336 83.6593C126.181 60.9807 104.927 39.4639 82.0767 39.4639ZM82.0767 119.589C70.4718 119.511 59.2763 112.858 52.5209 103.317C49.7932 99.649 47.8589 95.4555 46.8407 91.0027C45.8224 86.5498 45.7423 81.9346 46.6055 77.4493C49.8526 61.3187 65.2623 47.4693 82.0767 47.6524C98.3688 47.8284 113.997 60.5301 117.372 76.5199C117.886 78.8317 118.147 81.1926 118.148 83.5607C118.148 92.4956 114.216 101.163 108.061 107.697C101.312 114.942 91.9098 119.659 82.0767 119.589Z" fill="url(#paint7_linear_5884_4707)"/>
<g opacity="0.42" style="mix-blend-mode:multiply">
<path d="M117.363 76.5551C114.01 60.5302 98.3749 47.8214 82.0687 47.6454C65.2613 47.4623 49.8587 61.3117 46.6045 77.4423C48.6657 59.7697 64.2942 45.8711 82.0334 45.8711C99.7726 45.8711 114.589 59.2628 117.363 76.5551Z" fill="#B41E2D"/>
</g>
<g opacity="0.42" style="mix-blend-mode:multiply">
<path d="M124.169 96.3189C124.169 96.3189 111.724 127.77 82.0762 127.77C62.6288 127.77 43.6049 111.872 39.0166 93.0801C44.9673 110.591 61.7394 126.672 80.975 126.672C110.524 126.672 124.169 96.3189 124.169 96.3189Z" fill="#B41E2D"/>
</g>
<path d="M125.213 92.6787C125.213 92.6787 125.213 92.8054 125.171 92.9815C125.171 93.1082 125.114 93.2349 125.079 93.3546C125.178 92.9322 125.178 92.7139 125.213 92.6787Z" fill="url(#paint8_linear_5884_4707)"/>
<g opacity="0.3" style="mix-blend-mode:soft-light">
<path d="M44.1978 63.9021C42.5954 66.3875 46.386 70.7458 47.3249 70.0277C52.5556 66.0214 54.765 55.9459 62.5087 51.0173C73.7466 43.8146 87.7798 44.2159 99.3565 49.405C108.103 53.3197 113.926 65.599 117.293 72.499C118.613 75.1956 122.891 69.6263 122.051 67.4437C116.792 53.7351 98.7706 39.7027 83.5726 39.6534C65.7347 39.5337 53.4309 49.5106 44.1978 63.9021Z" fill="white"/>
</g>
<path d="M107.312 116.434C106.776 115.35 97.5354 119.954 99.3707 121.116C100.295 121.715 107.729 117.272 107.312 116.434Z" fill="white"/>
<path d="M85.4434 119.589C85.4434 119.589 96.533 118.061 100.973 115.132C105.413 112.203 111.724 103.338 111.724 103.338C100.924 118.511 85.4434 119.589 85.4434 119.589Z" fill="#D2FFF1"/>
<path d="M57.2998 55.9178C62.7436 51.4545 69.0731 48.1911 75.8719 46.3423C75.8719 46.3423 68.0012 47.3984 64.8741 49.2079C62.1281 50.8273 57.2998 55.9178 57.2998 55.9178Z" fill="#D2FFF1"/>
<path d="M57.2431 49.3001C57.5749 50.1942 61.4785 48.596 62.255 47.9482C63.0315 47.3005 64.288 45.836 63.2715 45.5402C62.255 45.2445 56.9255 48.4411 57.2431 49.3001Z" fill="white"/>
<g opacity="0.5" style="mix-blend-mode:multiply">
<path d="M117.364 108.267C117.364 108.267 117.329 108.471 117.272 108.837C108.901 119.835 95.7568 127.848 82.0765 127.77C67.5068 127.664 53.1771 118.807 44.9746 106.464C46.0221 105.605 47.1837 104.894 48.4264 104.352C49.7204 103.777 51.1068 103.436 52.5206 103.345C52.9082 103.312 53.2978 103.312 53.6854 103.345C60.6596 112.034 72.5045 116.927 83.8342 116.864C92.2868 116.72 100.353 113.307 106.331 107.345L108.053 107.767C109.112 108.011 110.065 108.201 110.912 108.337C116.002 109.168 117.364 108.267 117.364 108.267Z" fill="#A52188"/>
</g>
<path d="M122.708 110.421C122.581 112.597 120.59 117.082 118.141 118.722C99.1308 131.649 76.9939 119.257 68.8478 121.173C60.7018 123.088 56.8476 137.331 66.0948 138.578C66.0948 138.578 64.1607 140.176 60.4477 139.704C52.5769 138.704 49.4428 132.959 48.0663 130.213C46.6898 127.467 47.438 134.585 50.3181 136.705C50.3181 136.705 43.2168 133.557 39.4543 128.629C38.7872 127.766 38.2366 126.819 37.8166 125.813C37.5022 125.057 37.2657 124.271 37.1108 123.468C36.0096 117.434 39.6167 110.527 48.7933 106.45C59.1912 101.824 67.7113 101.698 87.6176 106.45C99.6178 109.267 106.818 110.182 111.145 110.168C114.018 110.168 115.606 109.759 116.446 109.281C118.095 107.419 119.583 105.422 120.894 103.31C120.894 103.31 122.828 108.253 122.708 110.421Z" fill="url(#paint9_radial_5884_4707)"/>
<path d="M66.0944 138.578C66.0944 138.578 64.1603 140.176 60.4473 139.704C52.5765 138.704 49.4424 132.959 48.0659 130.213C46.6894 127.467 47.4376 134.586 50.3177 136.705C50.3177 136.705 40.4704 132.333 37.8162 125.841C37.5018 125.085 37.2653 124.3 37.1104 123.496C37.8162 125.841 38.3386 125.841 38.9951 125.214C39.6516 124.588 43.9787 119.582 43.9787 119.582C42.2563 121.56 42.4893 124.102 43.7952 124.954C44.5858 125.482 45.5387 118.617 51.0518 115.209C56.5648 111.801 57.8143 113.097 57.4402 113.717C57.066 114.336 48.6165 122.032 51.2989 129.706C51.2989 129.706 54.066 122.44 58.1884 121.166C60.0661 120.581 59.6002 123.982 59.6002 123.982C60.6026 124.102 62.1061 121.271 68.8686 121.166C60.7084 123.088 56.826 137.332 66.0944 138.578Z" fill="url(#paint10_linear_5884_4707)"/>
<path opacity="0.61" d="M122.707 110.421C122.58 112.597 120.59 117.082 118.14 118.723C99.1305 131.65 76.9936 119.258 68.8476 121.173C60.7016 123.088 56.8474 137.332 66.0946 138.578C66.0946 138.578 64.1605 140.176 60.4474 139.704C52.5767 138.705 49.4425 132.959 48.066 130.213C46.6895 127.467 47.4378 134.586 50.3178 136.705C50.3178 136.705 43.2165 133.558 39.4541 128.629C39.4541 128.629 42.9836 132.445 42.3342 129.185C40.2659 118.765 46.0189 118.469 51.0731 115.216C45.313 119.152 44.9954 126.249 50.7273 133.431C53.7485 137.212 55.7532 136.395 55.8944 135.114C56.6003 128.777 59.4239 124.848 59.5862 123.968C60.998 117.279 64.7605 111.703 71.1135 110.421C85.1397 107.605 97.7187 124.031 107.933 121.377C118.147 118.723 122.722 108.598 111.731 110.421C111.526 110.421 111.343 110.295 111.173 110.196C114.046 110.196 115.634 109.788 116.474 109.309C118.123 107.448 119.611 105.45 120.922 103.338C120.922 103.338 122.827 108.253 122.707 110.421Z" fill="url(#paint11_linear_5884_4707)" style="mix-blend-mode:multiply"/>
<path opacity="0.42" d="M57.4122 113.266C53.445 113.899 49.8308 119.215 50.3532 123.404C50.8756 127.594 51.3203 129.741 51.3203 129.741C51.5534 126.732 52.2684 123.78 53.438 120.997C55.1956 116.857 58.6475 113.069 57.4122 113.266Z" fill="url(#paint12_linear_5884_4707)" style="mix-blend-mode:multiply"/>
<g opacity="0.3" style="mix-blend-mode:soft-light">
<path d="M100.133 110.006C78.8929 106.063 72.2292 99.4447 54.5748 105.507C60.3725 103.826 66.5303 103.826 72.328 105.507C72.328 105.507 63.9632 103.021 51.0029 111.471C51.0029 111.471 65.1208 101.789 78.9988 109.358C92.8767 116.927 103.797 122.377 108.646 120.222C113.496 118.068 114.294 111.914 114.294 111.914C114.294 111.914 112.098 119.384 103.924 117.976C95.7497 116.568 84.9495 110.428 84.9495 110.428C84.9495 110.428 98.0085 116.674 104.397 115.54C110.785 114.407 112.868 111.471 112.868 111.471C112.868 111.471 105.251 110.957 100.133 110.006Z" fill="white"/>
</g>
<g opacity="0.3" style="mix-blend-mode:soft-light">
<path d="M97.6477 123.215C95.77 119.335 77.1767 107.126 68.353 111.245C63.3341 113.59 60.8211 121.807 63.08 121.56C64.5835 121.37 68.8401 119.546 74.1061 120.089C81.4545 120.849 99.1513 126.299 97.6477 123.215Z" fill="#990000"/>
</g>
<g opacity="0.3" style="mix-blend-mode:soft-light">
<path d="M88.0125 121.715C92.5373 122.701 84.5395 108.422 70.5416 112.97C66.3627 114.329 64.3438 120.342 67.2521 119.589C70.1604 118.835 78.2429 119.589 88.0125 121.715Z" fill="#990000"/>
</g>
<defs>
<linearGradient id="paint0_linear_5884_4707" x1="46.5344" y1="34.021" x2="46.5344" y2="86.5387" gradientUnits="userSpaceOnUse">
<stop stop-color="#FFBB00"/>
<stop offset="0.53" stop-color="#FF5319"/>
<stop offset="1" stop-color="#FF4000"/>
</linearGradient>
<linearGradient id="paint1_linear_5884_4707" x1="49.3434" y1="41.893" x2="49.3434" y2="59.136" gradientUnits="userSpaceOnUse">
<stop stop-color="#FFECC7"/>
<stop offset="1" stop-color="#FFAE7A"/>
</linearGradient>
<linearGradient id="paint2_linear_5884_4707" x1="61.0688" y1="62.3604" x2="32.0282" y2="62.3604" gradientUnits="userSpaceOnUse">
<stop stop-color="#FFC79F"/>
<stop offset="1" stop-color="#B41E2D"/>
</linearGradient>
<linearGradient id="paint3_linear_5884_4707" x1="117.364" y1="34.0211" x2="117.364" y2="86.5388" gradientUnits="userSpaceOnUse">
<stop stop-color="#FFBB00"/>
<stop offset="0.53" stop-color="#FF5319"/>
<stop offset="1" stop-color="#FF4000"/>
</linearGradient>
<linearGradient id="paint4_linear_5884_4707" x1="114.554" y1="41.8927" x2="114.554" y2="59.1358" gradientUnits="userSpaceOnUse">
<stop stop-color="#FFECC7"/>
<stop offset="1" stop-color="#FFAE7A"/>
</linearGradient>
<linearGradient id="paint5_linear_5884_4707" x1="102.829" y1="62.3604" x2="131.87" y2="62.3604" gradientUnits="userSpaceOnUse">
<stop stop-color="#FFC79F"/>
<stop offset="1" stop-color="#B41E2D"/>
</linearGradient>
<linearGradient id="paint6_linear_5884_4707" x1="80.9818" y1="44.0542" x2="80.9818" y2="122.454" gradientUnits="userSpaceOnUse">
<stop stop-color="#941F63"/>
<stop offset="1" stop-color="#AC3026"/>
</linearGradient>
<linearGradient id="paint7_linear_5884_4707" x1="82.0767" y1="39.4639" x2="82.0767" y2="127.77" gradientUnits="userSpaceOnUse">
<stop stop-color="#FFBB00"/>
<stop offset="0.53" stop-color="#FF5319"/>
<stop offset="1" stop-color="#FF4000"/>
</linearGradient>
<linearGradient id="paint8_linear_5884_4707" x1="125.093" y1="92.6998" x2="125.185" y2="93.3477" gradientUnits="userSpaceOnUse">
<stop stop-color="#FA9300"/>
<stop offset="0.45" stop-color="#F66A00"/>
<stop offset="1" stop-color="#F63F00"/>
</linearGradient>
<radialGradient id="paint9_radial_5884_4707" cx="0" cy="0" r="1" gradientUnits="userSpaceOnUse" gradientTransform="translate(71.6502 104.141) scale(59.6835 59.5304)">
<stop stop-color="#FFBB00"/>
<stop offset="0.53" stop-color="#FF5319"/>
<stop offset="1" stop-color="#FF4000"/>
</radialGradient>
<linearGradient id="paint10_linear_5884_4707" x1="52.9859" y1="112.97" x2="52.9859" y2="139.796" gradientUnits="userSpaceOnUse">
<stop stop-color="#FFECC7"/>
<stop offset="1" stop-color="#FFAE7A"/>
</linearGradient>
<linearGradient id="paint11_linear_5884_4707" x1="71.5441" y1="109.02" x2="96.5007" y2="130.093" gradientUnits="userSpaceOnUse">
<stop stop-color="#FFC79F"/>
<stop offset="1" stop-color="#B41E2D"/>
</linearGradient>
<linearGradient id="paint12_linear_5884_4707" x1="53.9886" y1="113.259" x2="53.9886" y2="129.713" gradientUnits="userSpaceOnUse">
<stop stop-color="#FFC79F"/>
<stop offset="1" stop-color="#B41E2D"/>
</linearGradient>
</defs>
</svg>
