<svg width="164" height="136" viewBox="0 0 164 136" fill="none" xmlns="http://www.w3.org/2000/svg">
<path d="M49.9677 51.0553C42.2204 50.9139 35.4027 42.659 31.1558 37.316C25.8858 30.4794 22.0175 22.6631 19.7742 14.3182C18.8586 11.0177 16.6401 2.11966 19.1756 0.536529C24.6057 -2.90536 41.2414 11.1449 46.1081 16.1699C52.6652 22.9265 58.9687 33.6409 56.8276 43.8181C54.541 46.2211 52.2544 48.6335 49.9677 51.0553Z" fill="url(#paint0_linear_5884_4538)"/>
<path opacity="0.79" d="M54.1585 43.111C52.6795 35.3933 50.9539 26.3115 45.6082 20.2476C41.9459 16.1201 25.93 2.46565 23.1903 5.29267C21.3168 7.22917 25.6624 16.1555 27.3738 19.7316C30.191 25.6472 33.3463 31.9302 37.6074 36.8421C38.9948 38.4465 55.6446 50.8853 54.1585 43.111Z" fill="url(#paint1_linear_5884_4538)" style="mix-blend-mode:multiply"/>
<path d="M52.6927 44.758C53.9464 42.0441 49.7487 31.2732 45.6497 26.2552C42.7831 22.7709 30.6762 14.4666 29.824 15.35C28.4154 16.8625 35.2048 31.6054 39.1701 36.7788C41.3112 39.5775 51.9391 46.4048 52.6927 44.758Z" fill="#FF4E8A"/>
<g opacity="0.3" style="mix-blend-mode:multiply">
<path d="M51.6787 39.6621C49.2841 35.0894 47.1289 29.5414 43.4384 25.527C40.7853 22.5014 37.7718 19.8145 34.4656 17.5266C33.3739 16.8198 29.7115 14.3391 30.5708 17.2934C33.2682 26.4812 37.0081 35.9658 45.7203 41.6057C47.6783 42.8708 54.334 44.7295 51.6787 39.6621Z" fill="#882985"/>
</g>
<g opacity="0.3" style="mix-blend-mode:multiply">
<path d="M38.7408 35.6195C41.6707 39.7541 49.6364 47.0689 52.3409 45.2314C55.0454 43.3938 47.3333 29.9302 47.3333 29.9302C47.2206 29.9867 47.8686 36.0719 45.0866 35.1531C42.3046 34.2343 36.8955 33.0258 38.7408 35.6195Z" fill="#882985"/>
</g>
<g opacity="0.6" style="mix-blend-mode:soft-light">
<path d="M49.0307 46.9557C43.7977 44.6799 37.2265 36.7502 35.0291 37.0611C33.7825 37.2378 38.1844 44.9202 39.7057 46.0086C42.0017 47.6483 45.7275 50.2986 48.4672 49.6202C49.411 49.3869 50.6224 47.6483 49.0307 46.9557Z" fill="white"/>
</g>
<g opacity="0.3" style="mix-blend-mode:multiply">
<path d="M50.1432 27.9793C50.5376 27.6118 39.466 13.9361 32.2117 8.89696C30.5495 7.77322 24.1404 3.37015 23.3234 6.2325C22.2599 9.93589 29.7184 23.1946 30.2889 23.0815C30.8594 22.9684 27.4295 12.6003 30.4439 13.5615C36.1628 15.3708 50.1432 27.9793 50.1432 27.9793Z" fill="#2D3B86"/>
</g>
<path fill-rule="evenodd" clip-rule="evenodd" d="M143.513 28.6086C139.955 34.7439 135.157 40.0643 129.427 44.2278C125.652 46.9064 121.574 49.8183 117.053 51.2954C117.053 51.2954 115.961 50.0727 114.658 48.5602C113.954 47.7051 113.108 46.758 112.404 45.8958C111.165 44.3833 110.214 43.6836 109.587 42.4397C110.841 34.8068 113.918 27.5979 117.496 20.8131C118.595 18.7352 120.666 14.5866 123.532 14.7633L128.103 17.9578C132.798 21.256 137.52 24.5542 142.267 27.8524L143.513 28.6086Z" fill="url(#paint2_linear_5884_4538)"/>
<path opacity="0.79" d="M142.309 27.7815C136.16 33.5769 129.871 40.0154 122.588 44.2842C120.032 45.7825 117.383 47.2667 114.679 48.5247C112.376 49.6131 111.918 49.4718 111.918 49.4718C112.129 48.0159 112.235 47.2879 112.439 45.832L112.707 43.952C116.158 35.6265 119.158 26.057 125.525 19.3994C126.263 18.6909 127.163 18.1741 128.145 17.894C132.859 21.2064 137.58 24.5022 142.309 27.7815Z" fill="url(#paint3_linear_5884_4538)" style="mix-blend-mode:multiply"/>
<path d="M114.446 45.0616C116.031 37.2025 120.785 25.11 129.237 22.5586L136.167 26.0924C131.624 34.3402 124.44 42.2205 115.742 46.044L114.446 45.0616Z" fill="#FF4E8A"/>
<g opacity="0.3" style="mix-blend-mode:multiply">
<path d="M124.891 25.2091C121.017 29.4002 113.735 41.3019 115.305 44.3904C116.298 46.3411 124.461 40.0015 126.215 37.9872C128.941 34.8351 133.547 30.6723 134.153 27.5909C134.8 24.2974 127.581 22.2973 124.891 25.2091Z" fill="#882985"/>
</g>
<g opacity="0.3" style="mix-blend-mode:multiply">
<path d="M131.462 31.6121C131.117 29.4071 129.181 23.6612 127.004 24.2831C125.117 24.8273 120.757 29.4424 121.074 30.7499C121.335 31.803 132.096 35.4498 131.462 31.6121Z" fill="#882985"/>
</g>
<path fill-rule="evenodd" clip-rule="evenodd" d="M144.069 24.6576C142.823 22.7918 138.977 22.3253 136.385 21.8801C131.223 20.9825 128.412 15.0953 123.13 14.021C119.672 16.4169 117.32 19.8446 115.58 23.4562C112.812 29.195 111.143 35.994 109.636 42.4042C111.875 34.3826 115.27 21.4984 123.405 17.5194C124.492 18.3305 125.514 19.2261 126.462 20.198C129.899 24.0004 131.568 30.6085 133.709 35.7042C135.371 39.662 138.639 49.0548 141.196 49.2315C144.478 49.4717 146.182 27.8098 144.069 24.6576Z" fill="url(#paint4_linear_5884_4538)"/>
<path opacity="0.32" fill-rule="evenodd" clip-rule="evenodd" d="M128.145 17.9224C128.102 17.9648 134.343 37.6196 139.498 45.2667C142.104 49.1326 143.724 40.6162 143.858 39.0048C144.168 35.1035 145.689 26.7709 143.153 24.5729C141.907 23.4986 139.463 24.6719 135.406 22.5657C132.849 21.2441 128.145 17.9224 128.145 17.9224Z" fill="url(#paint5_linear_5884_4538)" style="mix-blend-mode:multiply"/>
<g opacity="0.6" style="mix-blend-mode:soft-light">
<path d="M131.321 20.1768C134.779 25.4986 137.414 31.4848 139.618 36.8703C139.717 37.1106 139.879 37.3721 140.005 37.6265C141.196 34.7147 140.541 29.9653 139.857 27.0252C139.153 23.9084 142.337 24.8201 141.844 24.4668C141.351 24.1134 139.477 24.1628 135.885 22.6292C132.293 21.0955 131.321 20.1768 131.321 20.1768Z" fill="white"/>
</g>
<g opacity="0.48" style="mix-blend-mode:multiply">
<path d="M134.054 40.4254C132.49 41.8389 130.448 42.4537 130.067 41.9802C127.631 38.9695 127.722 31.5909 124.863 26.9617C123.278 24.4103 118.573 22.4738 118.524 21.9367C118.475 21.6116 122.158 16.2827 124.933 18.7775C129.666 23.018 131.511 30.128 134.998 38.6655C135.265 39.3794 134.054 40.4254 134.054 40.4254Z" fill="#2D3B86"/>
</g>
<path d="M55.186 95.7714C52.5824 91.5679 50.9618 86.827 50.446 81.9049C48.0655 61.8967 64.187 43.9664 84.2033 43.2172C102.41 42.5105 119.707 60.5327 117.911 78.2015C117.431 83.6955 115.817 89.029 113.171 93.8632C114.275 94.2128 115.359 94.6233 116.418 95.0929C119.604 88.6429 121.803 81.7475 122.94 74.6395C126.06 54.4899 101.811 38.1357 84.2666 38.0296C68.1451 37.9307 54.6859 46.6803 46.1638 59.8754C38.7405 71.3601 45.2271 87.6296 51.4391 98.0401C52.6168 97.1713 53.871 96.4119 55.186 95.7714Z" fill="url(#paint6_linear_5884_4538)"/>
<path d="M54.5802 96.1177C51.2229 90.6738 49.2069 84.5054 48.6992 78.1238C48.5572 76.0151 48.6067 73.8979 48.8471 71.7983C51.0023 54.4192 67.0463 41.4433 84.2806 41.6977C100.642 41.938 117.242 53.6348 119.369 70.7099C119.713 73.0498 119.774 75.4228 119.552 77.7774C118.932 83.6152 117.066 88.8381 114.263 94.1741C115.52 94.6213 116.746 95.1526 117.932 95.7643C118.9 96.2727 119.826 96.8589 120.7 97.5171C122.057 95.2474 123.255 92.8858 124.285 90.4495C124.304 90.4156 124.321 90.3802 124.334 90.3435C124.736 89.4035 125.088 88.4141 125.426 87.4529C125.468 87.3328 125.518 87.2055 125.553 87.0783C126.601 84.017 127.288 80.8434 127.602 77.622C129.905 53.2107 107.685 33.4781 84.2806 33.3227C60.3343 33.1672 38.0431 53.656 40.6138 77.9188C40.9187 81.2259 41.5751 84.4908 42.5718 87.6579C44.1601 92.1291 46.1966 96.4269 48.6499 100.485C50.3509 98.6859 52.3594 97.2066 54.5802 96.1177Z" fill="url(#paint7_linear_5884_4538)"/>
<g opacity="0.5" style="mix-blend-mode:multiply">
<path d="M119.37 70.7308C117.257 53.6415 100.649 41.9377 84.2812 41.6974C67.0469 41.443 51.0028 54.419 48.8477 71.7556C49.552 52.8924 66.1313 39.7044 84.2389 39.8881C102.023 40.0719 118.01 52.2987 119.37 70.7308Z" fill="#BF2D93"/>
</g>
<path d="M125.638 86.8027C125.638 86.8027 125.638 86.93 125.567 87.1066C125.532 87.2339 125.483 87.3611 125.44 87.4812C125.493 87.2514 125.559 87.0249 125.638 86.8027Z" fill="url(#paint8_linear_5884_4538)"/>
<g opacity="0.3" style="mix-blend-mode:soft-light">
<path d="M45.3189 57.7692C44.3328 59.9743 47.8473 64.6388 49.0165 64.13C52.9113 62.4903 55.5806 49.8041 63.5603 44.8568C75.3645 37.5419 90.5422 38.2345 102.635 43.4433C111.46 47.2386 116.721 59.6986 119.644 66.5966C120.785 69.2964 125.447 63.4091 124.933 61.3948C121.236 47.0124 101.107 33.4145 85.922 33.5276C67.6171 33.6548 52.2281 42.3125 45.3189 57.7692Z" fill="white"/>
</g>
<path d="M58.335 49.8322C58.335 49.8322 65.1878 44.4821 77.6399 40.3193C77.6399 40.3193 69.2869 40.9625 65.9907 43.0898C63.1313 44.9415 58.335 49.8322 58.335 49.8322Z" fill="white"/>
<path d="M57.8627 43.0333C58.2783 43.9591 62.3351 42.3972 63.138 41.747C63.9409 41.0968 65.2086 39.6268 64.1029 39.3016C62.9971 38.9765 57.4401 42.1428 57.8627 43.0333Z" fill="white"/>
<path d="M65.8428 113.334C64.9342 115.659 59.5956 118.246 56.5882 117.723C55.3515 117.517 54.2296 116.872 53.4259 115.907C51.8835 117.32 49.3973 117.257 49.3973 117.257C43.8615 112.189 41.1006 103.828 39.4525 96.7112C39.3821 96.3791 39.3398 96.1953 39.3398 96.1953C40.7485 94.3224 43.6995 93.8913 43.6995 93.8913C43.5976 92.6168 43.8667 91.3401 44.4742 90.2162C47.6999 88.4352 51.6229 87.8415 55.2289 87.3892C61.0676 91.9831 67.9134 108.026 65.8428 113.334Z" fill="url(#paint9_linear_5884_4538)"/>
<path opacity="0.58" d="M65.8424 113.334C64.9338 115.659 59.5952 118.246 56.5879 117.723C55.3512 117.517 54.2292 116.872 53.4255 115.907C51.8831 117.32 49.3969 117.257 49.3969 117.257C43.8611 112.189 41.1002 103.828 39.4521 96.7112C41.0509 101.298 42.9737 105.998 45.65 109.998C46.4107 111.122 47.8334 110.14 47.8897 109.447C47.946 108.754 47.0516 106.62 45.7768 102.379C44.9328 99.5934 44.2462 96.7619 43.7202 93.8983C45.2838 100.556 47.8686 112.069 53.3269 114.733C53.8552 114.995 60.7644 114.027 61.1517 112.917C62.9618 107.927 57.2569 96.6617 54.9539 89.7426C55.0666 88.7956 55.1299 88.3291 55.2497 87.375C61.0672 91.983 67.9131 108.026 65.8424 113.334Z" fill="url(#paint10_linear_5884_4538)" style="mix-blend-mode:multiply"/>
<path d="M65.2791 112.528C65.2791 112.528 65.0467 112.387 64.8495 112.111C60.6237 105.425 55.9189 96.1174 54.7709 88.5976C54.7358 88.4122 54.7554 88.2206 54.8273 88.0463C55.8978 87.8696 59.2573 93.8346 60.5744 96.5698C62.5957 100.733 66.4271 111.475 65.2791 112.528Z" fill="url(#paint11_linear_5884_4538)"/>
<path d="M40.2266 99.6865C40.297 102.636 41.0186 105.532 42.3395 108.168C43.5016 110.556 47.3259 114.945 47.3259 114.945C47.3259 114.945 43.8044 109.235 42.5508 106.245C41.5915 104.129 40.814 101.935 40.2266 99.6865Z" fill="url(#paint12_linear_5884_4538)"/>
<path d="M65.2791 112.528C65.2791 112.528 65.0466 112.387 64.8494 112.111C63.7648 104.436 59.9193 94.4424 54.7708 88.5976C54.7419 88.412 54.7613 88.2221 54.8272 88.0463C55.8977 87.8696 59.2573 93.8346 60.5743 96.5698C62.5957 100.733 66.4271 111.475 65.2791 112.528Z" fill="url(#paint13_linear_5884_4538)"/>
<path d="M101.698 112.861C102.565 115.172 107.953 117.49 110.854 116.925C112.107 116.68 113.235 116.005 114.045 115.016C115.559 116.338 118.038 116.211 118.038 116.211C123.63 111.313 126.49 102.952 128.279 95.9129C128.356 95.5878 128.392 95.4111 128.392 95.4111C126.983 93.6159 124.074 93.2414 124.074 93.2414C124.204 92.0007 123.959 90.7496 123.37 89.651C120.102 88.0114 116.271 87.4177 112.664 86.9937C106.798 91.6158 99.6982 107.525 101.698 112.861Z" fill="url(#paint14_linear_5884_4538)"/>
<path opacity="0.58" d="M101.698 112.861C102.565 115.172 107.953 117.49 110.854 116.924C112.107 116.68 113.235 116.005 114.045 115.016C115.559 116.338 118.038 116.211 118.038 116.211C123.631 111.313 126.49 102.952 128.279 95.9126C126.61 100.45 124.638 105.1 121.898 109.016C121.123 110.133 119.722 109.214 119.672 108.535C119.623 107.857 120.546 105.744 121.912 101.545C122.79 98.818 123.514 96.0431 124.081 93.234C122.44 99.7362 119.644 111.136 114.186 113.85C113.643 114.119 106.769 113.313 106.396 112.274C104.65 107.369 110.509 96.1953 112.911 89.3186C112.805 88.3857 112.756 87.9051 112.643 86.9863C106.798 91.6156 99.6983 107.525 101.698 112.861Z" fill="url(#paint15_linear_5884_4538)" style="mix-blend-mode:multiply"/>
<path d="M102.269 112.048C102.269 112.048 102.508 111.9 102.713 111.624C106.981 104.959 111.869 95.7431 113.101 88.2374C113.141 88.0546 113.121 87.8639 113.045 87.6932C111.932 87.5094 108.622 93.3472 107.199 96.1742C105.136 100.316 101.198 111.08 102.269 112.048Z" fill="url(#paint16_linear_5884_4538)"/>
<path d="M127.49 98.8667C127.375 101.772 126.62 104.615 125.278 107.192C124.074 109.574 120.193 113.942 120.193 113.942C120.193 113.942 123.778 108.288 125.123 105.319C126.091 103.239 126.883 101.08 127.49 98.8667Z" fill="url(#paint17_linear_5884_4538)"/>
<path d="M102.269 112.048C102.269 112.048 102.508 111.9 102.713 111.624C103.826 103.941 108.002 94.1035 113.101 88.2374C113.133 88.0543 113.114 87.8658 113.045 87.6932C111.932 87.5094 108.622 93.3472 107.199 96.1742C105.136 100.316 101.198 111.08 102.269 112.048Z" fill="url(#paint18_linear_5884_4538)"/>
<path d="M105.861 115.136C105.861 115.136 108.199 115.377 108.093 116.09C107.516 120.076 93.1198 125.024 84.9288 125.985C84.9288 125.985 84.3794 120.847 85.0063 120.062C86.3092 118.437 90.9294 118.352 93.4579 118.55C95.5708 118.712 97.247 120.522 97.247 120.522C97.247 120.522 99.2261 121.009 102.177 119.264C103.873 118.394 105.186 116.923 105.861 115.136Z" fill="url(#paint19_linear_5884_4538)"/>
<path opacity="0.58" d="M85.6758 125.094C87.9929 122.19 92.7188 121.97 96.1558 121.794C99.1421 121.638 96.353 123.412 91.2257 124.621C86.0984 125.829 85.6758 125.094 85.6758 125.094Z" fill="url(#paint20_linear_5884_4538)" style="mix-blend-mode:multiply"/>
<path opacity="0.58" fill-rule="evenodd" clip-rule="evenodd" d="M121.06 53.1895C118.644 61.3171 122.152 75.0988 123.842 75.4027C125.533 75.7066 127.779 73.9397 127.779 73.9397C127.64 70.2542 127.065 66.5984 126.068 63.0487C125.071 59.4598 123.368 56.1075 121.06 53.1895Z" fill="url(#paint21_linear_5884_4538)" style="mix-blend-mode:multiply"/>
<defs>
<linearGradient id="paint0_linear_5884_4538" x1="17.9994" y1="25.5273" x2="57.2573" y2="25.5273" gradientUnits="userSpaceOnUse">
<stop offset="0.02" stop-color="#CB88EC"/>
<stop offset="0.97" stop-color="#E7D0EB"/>
</linearGradient>
<linearGradient id="paint1_linear_5884_4538" x1="38.4877" y1="45.6624" x2="38.4877" y2="4.91102" gradientUnits="userSpaceOnUse">
<stop stop-color="white"/>
<stop offset="0.99" stop-color="#9422AC"/>
</linearGradient>
<linearGradient id="paint2_linear_5884_4538" x1="109.629" y1="32.9905" x2="143.513" y2="32.9905" gradientUnits="userSpaceOnUse">
<stop offset="0.02" stop-color="#CB88EC"/>
<stop offset="0.97" stop-color="#E7D0EB"/>
</linearGradient>
<linearGradient id="paint3_linear_5884_4538" x1="111.918" y1="33.7112" x2="142.309" y2="33.7112" gradientUnits="userSpaceOnUse">
<stop stop-color="white"/>
<stop offset="0.99" stop-color="#9422AC"/>
</linearGradient>
<linearGradient id="paint4_linear_5884_4538" x1="109.629" y1="31.6262" x2="144.999" y2="31.6262" gradientUnits="userSpaceOnUse">
<stop offset="0.02" stop-color="#FFD0EE"/>
<stop offset="0.97" stop-color="#FFE7EF"/>
</linearGradient>
<linearGradient id="paint5_linear_5884_4538" x1="128.145" y1="32.0928" x2="144.59" y2="32.0928" gradientUnits="userSpaceOnUse">
<stop stop-color="#D888FF"/>
<stop offset="0.99" stop-color="#AE76BA"/>
</linearGradient>
<linearGradient id="paint6_linear_5884_4538" x1="83.0482" y1="38.0296" x2="83.0482" y2="117.129" gradientUnits="userSpaceOnUse">
<stop offset="0.02" stop-color="#CB88EC"/>
<stop offset="0.97" stop-color="#E7D0EB"/>
</linearGradient>
<linearGradient id="paint7_linear_5884_4538" x1="40.4377" y1="66.95" x2="127.778" y2="66.95" gradientUnits="userSpaceOnUse">
<stop offset="0.02" stop-color="#FFD0EE"/>
<stop offset="0.97" stop-color="#FFE7EF"/>
</linearGradient>
<linearGradient id="paint8_linear_5884_4538" x1="125.49" y1="86.8239" x2="125.582" y2="87.467" gradientUnits="userSpaceOnUse">
<stop stop-color="#FA9505"/>
<stop offset="0.45" stop-color="#F66D05"/>
<stop offset="1" stop-color="#F64305"/>
</linearGradient>
<linearGradient id="paint9_linear_5884_4538" x1="50.665" y1="87.9616" x2="54.9339" y2="118.214" gradientUnits="userSpaceOnUse">
<stop offset="0.02" stop-color="#FFD0EE"/>
<stop offset="0.97" stop-color="#FFE7EF"/>
</linearGradient>
<linearGradient id="paint10_linear_5884_4538" x1="50.6858" y1="87.9616" x2="54.9547" y2="118.207" gradientUnits="userSpaceOnUse">
<stop stop-color="#D888FF"/>
<stop offset="0.99" stop-color="#AE76BA"/>
</linearGradient>
<linearGradient id="paint11_linear_5884_4538" x1="58.391" y1="87.5445" x2="61.9792" y2="112.991" gradientUnits="userSpaceOnUse">
<stop offset="0.02" stop-color="#FF758A"/>
<stop offset="0.97" stop-color="#FF16A3"/>
</linearGradient>
<linearGradient id="paint12_linear_5884_4538" x1="42.5719" y1="99.3543" x2="44.8198" y2="115.311" gradientUnits="userSpaceOnUse">
<stop offset="0.03" stop-color="#D472FF"/>
<stop offset="0.98" stop-color="#A343EC"/>
</linearGradient>
<linearGradient id="paint13_linear_5884_4538" x1="58.391" y1="87.5445" x2="61.9791" y2="112.991" gradientUnits="userSpaceOnUse">
<stop offset="0.03" stop-color="#D472FF"/>
<stop offset="0.98" stop-color="#A343EC"/>
</linearGradient>
<linearGradient id="paint14_linear_5884_4538" x1="116.989" y1="87.5732" x2="112.77" y2="117.486" gradientUnits="userSpaceOnUse">
<stop offset="0.02" stop-color="#FFD0EE"/>
<stop offset="0.97" stop-color="#FFE7EF"/>
</linearGradient>
<linearGradient id="paint15_linear_5884_4538" x1="116.961" y1="87.5941" x2="112.742" y2="117.486" gradientUnits="userSpaceOnUse">
<stop stop-color="#D888FF"/>
<stop offset="0.99" stop-color="#AE76BA"/>
</linearGradient>
<linearGradient id="paint16_linear_5884_4538" x1="109.34" y1="87.1702" x2="105.766" y2="112.539" gradientUnits="userSpaceOnUse">
<stop offset="0.02" stop-color="#FF758A"/>
<stop offset="0.97" stop-color="#FF16A3"/>
</linearGradient>
<linearGradient id="paint17_linear_5884_4538" x1="125.004" y1="98.5133" x2="122.777" y2="114.307" gradientUnits="userSpaceOnUse">
<stop offset="0.03" stop-color="#D472FF"/>
<stop offset="0.98" stop-color="#A343EC"/>
</linearGradient>
<linearGradient id="paint18_linear_5884_4538" x1="109.34" y1="87.1702" x2="105.766" y2="112.539" gradientUnits="userSpaceOnUse">
<stop offset="0.03" stop-color="#D472FF"/>
<stop offset="0.98" stop-color="#A343EC"/>
</linearGradient>
<linearGradient id="paint19_linear_5884_4538" x1="84.7034" y1="120.564" x2="108.093" y2="120.564" gradientUnits="userSpaceOnUse">
<stop offset="0.02" stop-color="#FFD0EE"/>
<stop offset="0.97" stop-color="#FFE7EF"/>
</linearGradient>
<linearGradient id="paint20_linear_5884_4538" x1="85.6758" y1="123.589" x2="97.3813" y2="123.589" gradientUnits="userSpaceOnUse">
<stop stop-color="#D888FF"/>
<stop offset="0.99" stop-color="#AE76BA"/>
</linearGradient>
<linearGradient id="paint21_linear_5884_4538" x1="120.236" y1="64.3138" x2="127.779" y2="64.3138" gradientUnits="userSpaceOnUse">
<stop stop-color="#D888FF"/>
<stop offset="0.99" stop-color="#AE76BA"/>
</linearGradient>
</defs>
</svg>
